<mxfile host="app.diagrams.net" agent="Mozilla/5.0 (Windows NT 10.0; Win64; x64) AppleWebKit/537.36 (KHTML, like Gecko) Chrome/141.0.0.0 Safari/537.36" version="28.2.7">
  <diagram name="Page-1" id="pkP7r03JcXVv8Jwx48xX">
    <mxGraphModel dx="1426" dy="749" grid="1" gridSize="10" guides="1" tooltips="1" connect="1" arrows="1" fold="1" page="1" pageScale="1" pageWidth="1169" pageHeight="827" math="0" shadow="0">
      <root>
        <mxCell id="0" />
        <mxCell id="1" parent="0" />
        <mxCell id="4mA09U-y53jeTH3qYbcP-43" value="" style="rounded=0;whiteSpace=wrap;html=1;fontFamily=Helvetica;fontSize=11;fontColor=default;labelBackgroundColor=default;" vertex="1" parent="1">
          <mxGeometry x="200" y="10" width="870" height="640" as="geometry" />
        </mxCell>
        <mxCell id="4mA09U-y53jeTH3qYbcP-9" value="&lt;font style=&quot;font-size: 14px;&quot;&gt;&lt;b&gt;Usuário&lt;/b&gt;&lt;/font&gt;" style="swimlane;fontStyle=0;childLayout=stackLayout;horizontal=1;startSize=30;horizontalStack=0;resizeParent=1;resizeParentMax=0;resizeLast=0;collapsible=0;marginBottom=0;align=center;whiteSpace=wrap;html=1;" vertex="1" parent="1">
          <mxGeometry x="850" y="30" width="200" height="120" as="geometry" />
        </mxCell>
        <mxCell id="4mA09U-y53jeTH3qYbcP-10" value="&lt;div style=&quot;line-height: 150%;&quot;&gt;Nome do Usuário&lt;br&gt;Nome do curso&lt;br&gt;Carga Horária Total&lt;br&gt;Quantidade Semestre&lt;/div&gt;" style="text;html=1;strokeColor=none;fillColor=none;spacingLeft=4;spacingRight=4;overflow=hidden;rotatable=0;points=[[0,0.5],[1,0.5]];portConstraint=eastwest;align=left;" vertex="1" parent="4mA09U-y53jeTH3qYbcP-9">
          <mxGeometry y="30" width="200" height="90" as="geometry" />
        </mxCell>
        <mxCell id="4mA09U-y53jeTH3qYbcP-11" value="&lt;font style=&quot;font-size: 14px;&quot;&gt;&lt;b&gt;Semestre&lt;/b&gt;&lt;/font&gt;" style="swimlane;fontStyle=0;childLayout=stackLayout;horizontal=1;startSize=30;horizontalStack=0;resizeParent=1;resizeParentMax=0;resizeLast=0;collapsible=0;marginBottom=0;align=center;whiteSpace=wrap;html=1;" vertex="1" parent="1">
          <mxGeometry x="850" y="190" width="200" height="80" as="geometry" />
        </mxCell>
        <mxCell id="4mA09U-y53jeTH3qYbcP-12" value="&lt;div style=&quot;line-height: 150%;&quot;&gt;Matérias&lt;br&gt;Aprovação&lt;/div&gt;" style="text;html=1;strokeColor=none;fillColor=none;spacingLeft=4;spacingRight=4;overflow=hidden;rotatable=0;points=[[0,0.5],[1,0.5]];portConstraint=eastwest;align=left;" vertex="1" parent="4mA09U-y53jeTH3qYbcP-11">
          <mxGeometry y="30" width="200" height="50" as="geometry" />
        </mxCell>
        <mxCell id="4mA09U-y53jeTH3qYbcP-13" value="&lt;font style=&quot;font-size: 14px;&quot;&gt;&lt;b&gt;Matéria&lt;/b&gt;&lt;/font&gt;" style="swimlane;fontStyle=0;childLayout=stackLayout;horizontal=1;startSize=30;horizontalStack=0;resizeParent=1;resizeParentMax=0;resizeLast=0;collapsible=0;marginBottom=0;align=center;whiteSpace=wrap;html=1;verticalAlign=middle;spacingBottom=0;spacingTop=0;spacing=2;" vertex="1" parent="1">
          <mxGeometry x="850" y="320" width="200" height="200" as="geometry" />
        </mxCell>
        <mxCell id="4mA09U-y53jeTH3qYbcP-14" value="&lt;div style=&quot;line-height: 150%;&quot;&gt;Nome&lt;br&gt;Carga Horária&lt;br&gt;Duração de cada aula&lt;br&gt;Limite de Faltas&lt;br&gt;Quant. de provas&lt;br&gt;Média Necessária&lt;br&gt;Aprovação&lt;/div&gt;" style="text;html=1;strokeColor=none;fillColor=none;spacingLeft=4;spacingRight=4;overflow=hidden;rotatable=0;points=[[0,0.5],[1,0.5]];portConstraint=eastwest;align=left;" vertex="1" parent="4mA09U-y53jeTH3qYbcP-13">
          <mxGeometry y="30" width="200" height="170" as="geometry" />
        </mxCell>
        <mxCell id="4mA09U-y53jeTH3qYbcP-15" value="&lt;font style=&quot;font-size: 14px;&quot;&gt;&lt;b&gt;IEA&lt;/b&gt;&lt;/font&gt;" style="swimlane;fontStyle=0;childLayout=stackLayout;horizontal=1;startSize=30;horizontalStack=0;resizeParent=1;resizeParentMax=0;resizeLast=0;collapsible=0;marginBottom=0;align=center;whiteSpace=wrap;html=1;" vertex="1" parent="1">
          <mxGeometry x="490" y="195" width="250" height="100" as="geometry" />
        </mxCell>
        <mxCell id="4mA09U-y53jeTH3qYbcP-16" value="&lt;div style=&quot;line-height: 150%;&quot;&gt;Média das disciplinas aprovadas&lt;div&gt;Índice de eficiência em carga horária&lt;/div&gt;&lt;div&gt;Índice de eficiência em períodos letivos&lt;/div&gt;&lt;/div&gt;" style="text;html=1;strokeColor=none;fillColor=none;spacingLeft=4;spacingRight=4;overflow=hidden;rotatable=0;points=[[0,0.5],[1,0.5]];portConstraint=eastwest;align=left;" vertex="1" parent="4mA09U-y53jeTH3qYbcP-15">
          <mxGeometry y="30" width="250" height="70" as="geometry" />
        </mxCell>
        <mxCell id="4mA09U-y53jeTH3qYbcP-17" value="&lt;font style=&quot;font-size: 14px;&quot;&gt;&lt;b&gt;Média Atual do aluno&lt;/b&gt;&lt;/font&gt;" style="swimlane;fontStyle=0;childLayout=stackLayout;horizontal=1;startSize=30;horizontalStack=0;resizeParent=1;resizeParentMax=0;resizeLast=0;collapsible=0;marginBottom=0;align=center;whiteSpace=wrap;html=1;" vertex="1" parent="1">
          <mxGeometry x="425" y="410" width="200" height="100" as="geometry" />
        </mxCell>
        <mxCell id="4mA09U-y53jeTH3qYbcP-18" value="&lt;div style=&quot;line-height: 150%;&quot;&gt;Nota das provas da matéria&lt;br&gt;Peso de cada nota&lt;br&gt;Média Atual&lt;/div&gt;" style="text;html=1;strokeColor=none;fillColor=none;spacingLeft=4;spacingRight=4;overflow=hidden;rotatable=0;points=[[0,0.5],[1,0.5]];portConstraint=eastwest;align=left;" vertex="1" parent="4mA09U-y53jeTH3qYbcP-17">
          <mxGeometry y="30" width="200" height="70" as="geometry" />
        </mxCell>
        <mxCell id="4mA09U-y53jeTH3qYbcP-36" style="edgeStyle=orthogonalEdgeStyle;rounded=0;orthogonalLoop=1;jettySize=auto;html=1;exitX=0;exitY=0.5;exitDx=0;exitDy=0;entryX=1;entryY=0.5;entryDx=0;entryDy=0;strokeWidth=2;endArrow=none;endFill=0;" edge="1" parent="1" source="4mA09U-y53jeTH3qYbcP-19" target="4mA09U-y53jeTH3qYbcP-17">
          <mxGeometry relative="1" as="geometry" />
        </mxCell>
        <mxCell id="4mA09U-y53jeTH3qYbcP-19" value="&lt;font style=&quot;font-size: 14px;&quot;&gt;&lt;b&gt;Nota&lt;/b&gt;&lt;/font&gt;" style="swimlane;fontStyle=0;childLayout=stackLayout;horizontal=1;startSize=30;horizontalStack=0;resizeParent=1;resizeParentMax=0;resizeLast=0;collapsible=0;marginBottom=0;align=center;whiteSpace=wrap;html=1;" vertex="1" parent="1">
          <mxGeometry x="655" y="420" width="140" height="80" as="geometry" />
        </mxCell>
        <mxCell id="4mA09U-y53jeTH3qYbcP-20" value="&lt;div style=&quot;line-height: 150%;&quot;&gt;Valor da Nota&lt;br&gt;Peso da Nota&lt;/div&gt;" style="text;html=1;strokeColor=none;fillColor=none;spacingLeft=4;spacingRight=4;overflow=hidden;rotatable=0;points=[[0,0.5],[1,0.5]];portConstraint=eastwest;align=left;" vertex="1" parent="4mA09U-y53jeTH3qYbcP-19">
          <mxGeometry y="30" width="140" height="50" as="geometry" />
        </mxCell>
        <mxCell id="4mA09U-y53jeTH3qYbcP-21" value="&lt;font style=&quot;font-size: 14px;&quot;&gt;&lt;b&gt;Faltas Restantes&lt;/b&gt;&lt;/font&gt;" style="swimlane;fontStyle=0;childLayout=stackLayout;horizontal=1;startSize=30;horizontalStack=0;resizeParent=1;resizeParentMax=0;resizeLast=0;collapsible=0;marginBottom=0;align=center;whiteSpace=wrap;html=1;" vertex="1" parent="1">
          <mxGeometry x="425" y="540" width="200" height="80" as="geometry" />
        </mxCell>
        <mxCell id="4mA09U-y53jeTH3qYbcP-22" value="&lt;div style=&quot;line-height: 150%;&quot;&gt;Quantidade&lt;br&gt;Faltas Totais da Matéria&lt;/div&gt;" style="text;html=1;strokeColor=none;fillColor=none;spacingLeft=4;spacingRight=4;overflow=hidden;rotatable=0;points=[[0,0.5],[1,0.5]];portConstraint=eastwest;align=left;" vertex="1" parent="4mA09U-y53jeTH3qYbcP-21">
          <mxGeometry y="30" width="200" height="50" as="geometry" />
        </mxCell>
        <mxCell id="4mA09U-y53jeTH3qYbcP-37" style="edgeStyle=orthogonalEdgeStyle;rounded=0;orthogonalLoop=1;jettySize=auto;html=1;exitX=0;exitY=0.5;exitDx=0;exitDy=0;entryX=1;entryY=0.5;entryDx=0;entryDy=0;endArrow=none;endFill=0;strokeWidth=2;" edge="1" parent="1" source="4mA09U-y53jeTH3qYbcP-23" target="4mA09U-y53jeTH3qYbcP-21">
          <mxGeometry relative="1" as="geometry" />
        </mxCell>
        <mxCell id="4mA09U-y53jeTH3qYbcP-23" value="&lt;font style=&quot;font-size: 14px;&quot;&gt;&lt;b&gt;Falta&lt;/b&gt;&lt;/font&gt;" style="swimlane;fontStyle=0;childLayout=stackLayout;horizontal=1;startSize=30;horizontalStack=0;resizeParent=1;resizeParentMax=0;resizeLast=0;collapsible=0;marginBottom=0;align=center;whiteSpace=wrap;html=1;" vertex="1" parent="1">
          <mxGeometry x="655" y="550" width="140" height="60" as="geometry" />
        </mxCell>
        <mxCell id="4mA09U-y53jeTH3qYbcP-24" value="&lt;div style=&quot;line-height: 150%;&quot;&gt;Quantidade Faltas&lt;/div&gt;" style="text;html=1;strokeColor=none;fillColor=none;spacingLeft=4;spacingRight=4;overflow=hidden;rotatable=0;points=[[0,0.5],[1,0.5]];portConstraint=eastwest;align=left;" vertex="1" parent="4mA09U-y53jeTH3qYbcP-23">
          <mxGeometry y="30" width="140" height="30" as="geometry" />
        </mxCell>
        <mxCell id="4mA09U-y53jeTH3qYbcP-35" value="&lt;span style=&quot;&quot;&gt;Cadastro Usuário&lt;/span&gt;&lt;div&gt;&lt;span style=&quot;&quot;&gt;&lt;br&gt;&lt;/span&gt;&lt;/div&gt;&lt;div&gt;&lt;span style=&quot;&quot;&gt;Configuração Semestre&lt;/span&gt;&lt;span style=&quot;&quot;&gt;&lt;/span&gt;&lt;/div&gt;&lt;div&gt;&lt;span style=&quot;&quot;&gt;&lt;br&gt;&lt;/span&gt;&lt;/div&gt;&lt;div&gt;&lt;span style=&quot;&quot;&gt;Registrar Matéria&lt;/span&gt;&lt;span style=&quot;&quot;&gt;&lt;/span&gt;&lt;/div&gt;&lt;div&gt;&lt;span style=&quot;&quot;&gt;&lt;br&gt;&lt;/span&gt;&lt;/div&gt;&lt;div&gt;&lt;span style=&quot;&quot;&gt;Registrar Nota&lt;/span&gt;&lt;span style=&quot;&quot;&gt;&lt;/span&gt;&lt;/div&gt;&lt;div&gt;&lt;span style=&quot;&quot;&gt;&lt;br&gt;&lt;/span&gt;&lt;/div&gt;&lt;div&gt;&lt;span style=&quot;&quot;&gt;Registrar Falta&lt;/span&gt;&lt;span style=&quot;&quot;&gt;&lt;/span&gt;&lt;/div&gt;&lt;div&gt;&lt;span style=&quot;&quot;&gt;&lt;br&gt;&lt;/span&gt;&lt;/div&gt;&lt;div&gt;&lt;span style=&quot;&quot;&gt;Listar Matéria&lt;/span&gt;&lt;span style=&quot;&quot;&gt;&lt;/span&gt;&lt;/div&gt;&lt;div&gt;&lt;span style=&quot;&quot;&gt;&lt;br&gt;&lt;/span&gt;&lt;/div&gt;&lt;div&gt;&lt;span style=&quot;&quot;&gt;Calcular IEA&lt;/span&gt;&lt;span style=&quot;&quot;&gt;&lt;/span&gt;&lt;/div&gt;" style="shape=note;size=20;whiteSpace=wrap;html=1;align=left;labelPosition=center;verticalLabelPosition=middle;verticalAlign=middle;spacingLeft=11;" vertex="1" parent="1">
          <mxGeometry x="220" y="130" width="160" height="230" as="geometry" />
        </mxCell>
        <mxCell id="4mA09U-y53jeTH3qYbcP-38" style="shape=connector;rounded=0;orthogonalLoop=1;jettySize=auto;html=1;exitX=0;exitY=0.5;exitDx=0;exitDy=0;entryX=0.995;entryY=0.188;entryDx=0;entryDy=0;entryPerimeter=0;strokeColor=default;strokeWidth=2;align=center;verticalAlign=middle;fontFamily=Helvetica;fontSize=11;fontColor=default;labelBackgroundColor=default;endArrow=none;endFill=0;" edge="1" parent="1" source="4mA09U-y53jeTH3qYbcP-14" target="4mA09U-y53jeTH3qYbcP-19">
          <mxGeometry relative="1" as="geometry" />
        </mxCell>
        <mxCell id="4mA09U-y53jeTH3qYbcP-39" style="shape=connector;rounded=0;orthogonalLoop=1;jettySize=auto;html=1;exitX=1;exitY=0.5;exitDx=0;exitDy=0;entryX=0.003;entryY=0.786;entryDx=0;entryDy=0;entryPerimeter=0;strokeColor=default;strokeWidth=2;align=center;verticalAlign=middle;fontFamily=Helvetica;fontSize=11;fontColor=default;labelBackgroundColor=default;endArrow=none;endFill=0;" edge="1" parent="1" source="4mA09U-y53jeTH3qYbcP-23" target="4mA09U-y53jeTH3qYbcP-14">
          <mxGeometry relative="1" as="geometry" />
        </mxCell>
        <mxCell id="4mA09U-y53jeTH3qYbcP-40" style="shape=connector;rounded=0;orthogonalLoop=1;jettySize=auto;html=1;exitX=0;exitY=0;exitDx=0;exitDy=0;entryX=0.998;entryY=1;entryDx=0;entryDy=0;entryPerimeter=0;strokeColor=default;strokeWidth=2;align=center;verticalAlign=middle;fontFamily=Helvetica;fontSize=11;fontColor=default;labelBackgroundColor=default;endArrow=none;endFill=0;" edge="1" parent="1" source="4mA09U-y53jeTH3qYbcP-13" target="4mA09U-y53jeTH3qYbcP-16">
          <mxGeometry relative="1" as="geometry">
            <mxPoint x="876" y="440" as="sourcePoint" />
            <mxPoint x="820" y="440" as="targetPoint" />
          </mxGeometry>
        </mxCell>
        <mxCell id="4mA09U-y53jeTH3qYbcP-41" style="shape=connector;rounded=0;orthogonalLoop=1;jettySize=auto;html=1;exitX=1;exitY=0;exitDx=0;exitDy=0;entryX=0;entryY=1;entryDx=0;entryDy=0;entryPerimeter=0;strokeColor=default;strokeWidth=2;align=center;verticalAlign=middle;fontFamily=Helvetica;fontSize=11;fontColor=default;labelBackgroundColor=default;endArrow=none;endFill=0;" edge="1" parent="1" source="4mA09U-y53jeTH3qYbcP-15" target="4mA09U-y53jeTH3qYbcP-10">
          <mxGeometry relative="1" as="geometry">
            <mxPoint x="859" y="217" as="sourcePoint" />
            <mxPoint x="750" y="140" as="targetPoint" />
          </mxGeometry>
        </mxCell>
        <mxCell id="4mA09U-y53jeTH3qYbcP-42" style="shape=connector;rounded=0;orthogonalLoop=1;jettySize=auto;html=1;exitX=0;exitY=0.5;exitDx=0;exitDy=0;entryX=1.002;entryY=0.291;entryDx=0;entryDy=0;entryPerimeter=0;strokeColor=default;strokeWidth=2;align=center;verticalAlign=middle;fontFamily=Helvetica;fontSize=11;fontColor=default;labelBackgroundColor=default;endArrow=none;endFill=0;" edge="1" parent="1" source="4mA09U-y53jeTH3qYbcP-12" target="4mA09U-y53jeTH3qYbcP-16">
          <mxGeometry relative="1" as="geometry" />
        </mxCell>
        <mxCell id="4mA09U-y53jeTH3qYbcP-44" style="edgeStyle=orthogonalEdgeStyle;shape=connector;rounded=0;orthogonalLoop=1;jettySize=auto;html=1;exitX=0.5;exitY=0;exitDx=0;exitDy=0;entryX=0.5;entryY=1.012;entryDx=0;entryDy=0;entryPerimeter=0;strokeColor=default;strokeWidth=2;align=center;verticalAlign=middle;fontFamily=Helvetica;fontSize=11;fontColor=default;labelBackgroundColor=default;endArrow=none;endFill=0;" edge="1" parent="1" source="4mA09U-y53jeTH3qYbcP-13" target="4mA09U-y53jeTH3qYbcP-12">
          <mxGeometry relative="1" as="geometry" />
        </mxCell>
        <mxCell id="4mA09U-y53jeTH3qYbcP-45" style="edgeStyle=orthogonalEdgeStyle;shape=connector;rounded=0;orthogonalLoop=1;jettySize=auto;html=1;exitX=0.5;exitY=0;exitDx=0;exitDy=0;entryX=0.5;entryY=0.996;entryDx=0;entryDy=0;entryPerimeter=0;strokeColor=default;strokeWidth=2;align=center;verticalAlign=middle;fontFamily=Helvetica;fontSize=11;fontColor=default;labelBackgroundColor=default;endArrow=none;endFill=0;" edge="1" parent="1" source="4mA09U-y53jeTH3qYbcP-11" target="4mA09U-y53jeTH3qYbcP-10">
          <mxGeometry relative="1" as="geometry" />
        </mxCell>
      </root>
    </mxGraphModel>
  </diagram>
</mxfile>
